<?xml version="1.0" standalone="no"?>
<!DOCTYPE svg >
<svg version="1.0" xmlns="http://www.w3.org/2000/svg"
 width="500.000000pt" height="500.000000pt" viewBox="0 0 500.000000 500.000000"
 preserveAspectRatio="xMidYMid meet">

<g transform="translate(0.000000,500.000000) scale(0.100000,-0.100000)"
fill="#000000" stroke="none">
<path d="M1815 3800 c-176 -20 -483 -24 -630 -9 -49 5 -153 12 -231 15 -136 7
-144 6 -230 -22 -112 -35 -134 -56 -134 -124 0 -62 19 -110 55 -138 44 -35 46
-26 5 16 -29 29 -40 49 -45 85 -14 91 6 112 149 156 75 23 164 27 286 11 240
-32 564 -30 840 4 68 9 169 16 223 16 111 0 104 8 72 -80 -14 -37 -15 -54 -6
-95 6 -28 21 -65 32 -84 17 -29 18 -33 4 -27 -97 37 -600 29 -1245 -20 -113
-8 -217 -13 -233 -10 l-27 6 17 -27 c15 -23 18 -50 17 -168 0 -126 -3 -152
-32 -255 -82 -298 -102 -385 -116 -516 -17 -151 -46 -585 -46 -683 0 -51 -3
-61 -17 -61 -28 -1 -130 -45 -175 -77 -50 -34 -68 -74 -68 -148 0 -114 48
-165 155 -165 38 0 115 15 210 40 261 69 306 71 770 30 157 -14 421 -12 495 4
151 33 391 128 441 176 66 63 77 158 28 260 -33 71 -89 272 -89 323 0 18 9 63
20 102 34 119 81 457 90 640 7 166 9 173 46 265 l38 95 1 160 c0 151 -1 163
-25 210 -15 29 -38 57 -56 68 -87 49 -300 59 -589 27z m520 -15 c72 -19 86
-31 117 -98 21 -47 23 -66 22 -182 -1 -136 1 -126 -66 -302 -17 -47 -23 -91
-28 -228 -4 -93 -13 -191 -19 -216 -6 -25 -17 -102 -26 -170 -8 -68 -26 -165
-40 -214 -41 -148 -30 -237 50 -421 54 -124 59 -183 21 -249 -47 -79 -143
-122 -204 -91 -29 15 -52 58 -52 97 0 22 41 45 95 54 95 15 88 9 81 77 -8 84
-31 119 -86 136 -61 17 -107 10 -345 -55 -413 -113 -358 -106 -800 -108 -214
-1 -414 -5 -443 -9 l-52 -8 0 59 c0 104 29 576 40 658 15 107 72 369 117 535
32 118 37 150 38 250 0 63 -3 130 -7 148 l-8 32 73 0 c39 1 144 7 232 15 88 8
334 20 546 27 359 11 398 10 548 -7 l161 -19 31 30 c36 33 59 81 59 121 0 52
-8 54 -101 38 -46 -8 -87 -15 -91 -15 -15 0 -8 51 12 90 23 46 35 48 125 25z
m35 -140 c0 -63 -49 -125 -97 -125 -25 0 -66 55 -77 102 -6 26 -4 27 41 33 27
4 53 8 58 10 6 2 25 4 43 4 28 1 32 -2 32 -24z m-270 -1692 c-1 -5 -7 -35 -15
-68 -30 -121 -13 -215 49 -277 15 -14 23 -29 18 -32 -32 -20 -187 -69 -256
-80 -162 -28 -268 -29 -476 -6 -125 15 -255 23 -360 23 -172 0 -219 -6 -492
-68 -138 -31 -201 -32 -228 -5 -30 30 -40 63 -40 128 0 104 55 152 230 200 94
26 99 26 405 24 484 -4 598 10 935 113 187 56 230 66 230 48z m133 -25 c12
-17 22 -49 25 -83 4 -51 3 -55 -17 -55 -11 0 -44 -9 -73 -20 -59 -22 -68 -17
-68 40 1 45 18 120 32 138 19 22 78 11 101 -20z"/>
<path d="M3640 2965 c0 -218 1 -225 20 -225 13 0 20 7 20 18 0 30 10 31 35 6
19 -19 35 -24 77 -24 94 0 130 46 130 166 -1 47 -6 83 -17 104 -32 62 -139 78
-191 29 l-24 -22 0 86 c0 86 0 87 -25 87 l-25 0 0 -225z m199 48 c50 -40 47
-192 -3 -225 -21 -14 -93 -8 -115 10 -49 39 -47 166 4 210 32 27 84 29 114 5z"/>
<path d="M4020 2965 c0 -218 1 -225 20 -225 13 0 20 7 20 18 0 30 10 31 35 6
19 -19 35 -24 77 -24 94 0 130 46 130 166 -1 47 -6 83 -17 104 -33 64 -146 79
-192 25 l-23 -26 0 90 c0 90 0 91 -25 91 l-25 0 0 -225z m199 48 c50 -40 47
-192 -3 -225 -21 -14 -93 -8 -115 10 -49 39 -47 166 4 210 32 27 84 29 114 5z"/>
<path d="M4400 2987 c0 -230 4 -247 66 -247 27 0 34 4 34 19 0 13 -8 21 -22
23 -23 3 -23 4 -26 206 l-2 202 -25 0 -25 0 0 -203z"/>
<path d="M3474 3165 c-8 -21 4 -35 32 -35 19 0 24 5 24 25 0 20 -5 25 -25 25
-14 0 -28 -7 -31 -15z"/>
<path d="M2653 3145 c-40 -17 -53 -42 -53 -100 0 -59 30 -89 107 -106 73 -17
103 -41 103 -84 0 -64 -86 -95 -188 -66 -30 9 -32 8 -32 -14 0 -30 38 -39 140
-33 60 3 74 8 98 31 23 23 27 36 27 82 0 70 -19 89 -122 124 l-78 26 0 45 c0
40 3 46 29 59 23 11 44 12 93 4 61 -9 63 -8 63 13 0 16 -8 23 -31 28 -51 10
-122 6 -156 -9z"/>
<path d="M3030 3063 c-61 -20 -82 -47 -95 -120 -10 -64 4 -131 36 -167 26 -30
31 -31 106 -31 70 0 78 2 81 20 3 19 -2 20 -62 17 -54 -3 -68 0 -84 16 -27 27
-38 114 -20 167 17 52 47 67 116 60 47 -6 52 -5 52 13 0 27 -78 43 -130 25z"/>
<path d="M3354 3060 c-12 -5 -29 -19 -38 -32 l-16 -22 0 27 c0 22 -4 27 -25
27 l-25 0 0 -160 0 -160 25 0 25 0 0 115 c0 110 1 117 25 140 13 14 33 25 44
25 17 0 41 26 41 44 0 9 -31 6 -56 -4z"/>
<path d="M4625 3052 c-22 -10 -46 -30 -52 -44 -34 -75 -22 -196 23 -239 27
-25 113 -37 179 -25 29 6 35 11 35 31 0 22 -2 24 -26 15 -14 -6 -47 -10 -74
-10 -60 0 -100 29 -103 75 -2 29 0 30 43 32 25 2 73 5 108 9 l62 6 0 49 c0 39
-5 55 -28 80 -36 41 -106 49 -167 21z m124 -39 c11 -10 24 -33 27 -50 6 -31 5
-33 -23 -33 -17 0 -58 -3 -93 -7 l-62 -6 7 34 c13 68 94 103 144 62z"/>
<path d="M3480 2900 c0 -153 1 -160 20 -160 19 0 20 7 20 160 0 153 -1 160
-20 160 -19 0 -20 -7 -20 -160z"/>
<path d="M3143 2275 c-40 -17 -53 -42 -53 -100 0 -59 30 -89 107 -106 73 -17
103 -41 103 -84 0 -64 -86 -95 -188 -66 -30 9 -32 8 -32 -14 0 -30 38 -39 140
-33 60 3 74 8 98 31 23 23 27 36 27 82 0 70 -19 89 -122 124 l-78 26 0 45 c0
40 3 46 29 59 23 11 44 12 93 4 61 -9 63 -8 63 13 0 16 -8 23 -31 28 -51 10
-122 6 -156 -9z"/>
<path d="M3848 2182 c-30 -16 -38 -17 -38 -6 0 8 -10 14 -25 14 l-25 0 0 -160
0 -160 25 0 25 0 0 116 c0 63 5 124 10 134 13 25 80 43 113 31 34 -13 37 -27
37 -162 l0 -119 26 0 26 0 -4 140 c-3 127 -5 141 -24 161 -31 31 -99 36 -146
11z"/>
<path d="M4191 2187 c-50 -18 -72 -54 -78 -129 -7 -80 8 -129 49 -163 27 -23
38 -26 102 -23 62 3 71 5 74 23 2 18 -2 20 -48 17 -76 -6 -99 3 -117 46 -22
53 -14 146 16 175 18 19 32 22 86 20 56 -1 65 1 65 17 0 29 -85 39 -149 17z"/>
<path d="M3400 2184 c0 -3 28 -76 62 -161 59 -146 62 -155 48 -181 -9 -15 -30
-33 -48 -41 -19 -9 -32 -22 -32 -33 0 -22 10 -22 54 -4 50 21 69 53 134 229
33 89 64 170 67 180 6 13 2 17 -18 17 -22 0 -28 -10 -68 -130 -24 -71 -47
-130 -51 -130 -3 0 -28 59 -54 130 -42 116 -50 130 -71 130 -12 0 -23 -3 -23
-6z"/>
</g>
</svg>
